<svg xmlns="http://www.w3.org/2000/svg" viewBox="0 0 46.6 49" fill="#fff" xmlns:v="https://vecta.io/nano"><path d="M43.2 30.6c-2.3-3.3-4.9-4.5-4.9-4.5-2.7-1.6-6.3-1.4-6.3-1.4-.8 1.7-2.5 3-4.4 3a4.65 4.65 0 0 1-2.1-.5c-2.9 3.8-2.6 6.9-2.6 7.1.2 4.8 4.8 14.7 23.5 14.8 0-.5 1.5-12.5-3.2-18.5m-15-25.3C23 .3 13.4-1.6 1.1 3.8c0 .2 3.8 15.7 20.3 18.3h0c.4 0 .8.1 1.3.1h0c.2-2.5 2.3-4.4 4.8-4.4a4.53 4.53 0 0 1 1.6.3c4.8-7.3-.4-12.2-.9-12.8z"/><path d="M25.4 27.1h0c-1.7-.8-2.9-2.5-2.9-4.4v-.4c-1.5-.2-2.6-.1-2.6-.1-5.2 0-10.1 2.5-12 4.1C1.1 31.7.5 40.6.5 40.6c.4 0 12.6 1.7 20.1-5.7.7-.7 1.5-1.7 2.1-2.6 0 0 .2-.3.5-.9h0c.3-1.2 1-2.7 2.2-4.3h0z"/></svg>